<?xml version="1.0" standalone="no"?>
<!DOCTYPE svg PUBLIC "-//W3C//DTD SVG 20010904//EN"
 "http://www.w3.org/TR/2001/REC-SVG-20010904/DTD/svg10.dtd">
<svg version="1.0" xmlns="http://www.w3.org/2000/svg"
 width="900.000000pt" height="786.000000pt" viewBox="0 0 900.000000 786.000000"
 preserveAspectRatio="xMidYMid meet">
<metadata>
Created by potrace 1.10, written by Peter Selinger 2001-2011
</metadata>
<g transform="translate(0.000000,786.000000) scale(0.100000,-0.100000)"
fill="#b17a49" stroke="none">
<path d="M545 7451 c-137 -5 -177 -10 -208 -25 -76 -38 -137 -139 -137 -228 0
-80 76 -189 155 -224 11 -4 247 -11 525 -14 493 -5 506 -6 550 -27 102 -49
152 -128 189 -298 12 -55 29 -127 37 -160 35 -134 42 -162 52 -210 18 -84 52
-227 66 -280 13 -47 21 -80 61 -260 8 -38 22 -92 30 -120 7 -27 21 -84 31
-125 9 -41 35 -154 59 -250 23 -96 50 -211 60 -255 10 -44 29 -123 43 -175 13
-52 28 -113 32 -135 7 -35 21 -98 80 -340 7 -27 16 -66 21 -85 5 -19 18 -75
29 -125 12 -49 34 -144 50 -210 16 -66 36 -151 45 -190 9 -38 27 -115 42 -170
14 -55 29 -118 34 -140 62 -298 145 -608 181 -677 58 -107 85 -145 166 -226
134 -135 277 -211 452 -238 113 -17 4342 -20 4405 -3 55 16 102 54 136 113 24
43 29 62 29 119 0 83 -18 126 -76 183 -77 75 110 69 -2282 70 l-2153 2 -64 31
c-67 33 -142 106 -170 165 -15 31 -67 226 -85 316 -5 25 -17 74 -26 110 -9 36
-18 80 -21 98 l-5 32 2416 0 c2346 0 2418 1 2515 19 170 33 300 97 419 206
164 151 238 292 302 575 12 52 25 109 31 126 5 17 9 39 9 49 0 10 6 41 14 69
32 113 57 216 98 401 6 28 17 73 24 100 41 151 47 186 47 290 1 186 -50 311
-178 441 -85 85 -140 122 -245 163 l-65 26 -2988 2 -2988 3 -8 23 c-5 12 -16
56 -25 97 -10 41 -24 102 -32 135 -32 123 -44 174 -74 310 -17 77 -38 160 -46
184 -8 25 -14 55 -14 67 0 13 -4 33 -9 46 -5 13 -19 54 -31 92 -67 209 -260
407 -472 482 -109 39 -186 46 -528 49 -184 1 -411 0 -505 -4z m3472 -1979 c6
-4 16 -39 22 -77 6 -39 15 -95 21 -125 17 -91 38 -219 55 -325 8 -55 22 -138
30 -185 8 -47 21 -128 30 -180 9 -52 20 -115 25 -140 5 -25 12 -67 16 -95 5
-42 26 -172 51 -311 4 -26 2 -32 -18 -37 -13 -4 -348 -7 -745 -7 -561 0 -724
3 -737 13 -13 10 -55 149 -74 247 -5 24 -30 133 -74 320 -11 47 -26 108 -33
135 -8 28 -18 73 -24 100 -6 28 -27 115 -46 195 -19 80 -42 174 -50 210 -8 36
-24 105 -36 153 -12 49 -19 95 -16 103 5 12 119 14 798 14 436 0 798 -4 805
-8z m2330 -4 c9 -17 7 -41 -24 -223 -14 -82 -28 -177 -33 -210 -4 -33 -12 -85
-18 -115 -11 -52 -21 -114 -57 -335 -19 -120 -42 -257 -55 -330 -6 -33 -17
-99 -25 -148 -7 -48 -19 -94 -25 -102 -11 -13 -109 -15 -722 -15 -470 0 -716
3 -729 10 -10 6 -19 21 -19 33 0 12 -6 54 -14 92 -15 79 -38 211 -61 360 -9
55 -20 125 -25 155 -29 168 -51 296 -65 385 -37 227 -47 283 -62 352 -8 40
-13 80 -9 88 5 13 117 15 970 15 761 0 966 -3 973 -12z m1841 -9 c35 -17 49
-32 64 -67 19 -43 20 -47 3 -116 -9 -39 -23 -100 -31 -136 -8 -36 -21 -90 -29
-120 -8 -30 -29 -116 -46 -190 -17 -74 -37 -157 -44 -185 -7 -27 -27 -111 -45
-185 -55 -234 -68 -267 -131 -335 -31 -33 -79 -72 -107 -87 -79 -43 -194 -49
-792 -46 l-525 3 -3 33 c-2 18 3 70 12 115 16 89 36 204 61 362 9 55 23 138
31 185 21 120 92 547 109 658 8 51 19 101 25 112 10 20 24 20 707 20 692 0
697 0 741 -21z"/>
<path d="M2691 2038 c-116 -16 -257 -73 -346 -138 -61 -45 -160 -143 -198
-195 -45 -63 -106 -197 -127 -280 -28 -109 -28 -287 1 -398 46 -181 162 -354
310 -463 238 -174 572 -205 838 -76 127 61 242 160 321 276 40 57 100 178 100
200 0 7 8 31 17 52 15 32 18 69 18 204 0 154 -2 170 -28 250 -33 98 -84 196
-134 258 -198 243 -473 353 -772 310z m267 -517 c65 -34 118 -87 149 -149 24
-50 28 -69 28 -147 0 -79 -4 -96 -28 -143 -57 -109 -159 -173 -283 -180 -61
-4 -78 0 -136 26 -120 54 -189 152 -196 275 -8 135 61 257 180 317 60 30 68
31 153 28 68 -3 101 -10 133 -27z"/>
<path d="M7495 2036 c-88 -14 -223 -63 -280 -101 -20 -14 -40 -25 -46 -25 -10
0 -172 -159 -199 -195 -31 -41 -80 -126 -80 -138 0 -7 -7 -22 -15 -34 -24 -35
-55 -169 -62 -269 -13 -196 42 -380 162 -538 165 -218 381 -326 655 -326 144
0 230 20 361 83 113 54 208 131 282 230 52 70 117 180 117 199 0 6 6 24 14 41
25 56 46 177 46 264 0 158 -48 313 -140 451 -117 176 -283 294 -486 347 -82
21 -234 26 -329 11z m271 -516 c104 -52 154 -114 179 -224 18 -79 9 -149 -30
-226 -98 -192 -374 -227 -523 -66 -63 68 -85 126 -85 222 0 69 4 90 29 140 34
70 83 121 144 151 64 31 67 31 151 32 65 1 84 -3 135 -29z"/>
</g>
</svg>
