<?xml version="1.0" standalone="no"?>
<!DOCTYPE svg PUBLIC "-//W3C//DTD SVG 20010904//EN"
 "http://www.w3.org/TR/2001/REC-SVG-20010904/DTD/svg10.dtd">
<svg version="1.0" xmlns="http://www.w3.org/2000/svg"
 width="900.000000pt" height="786.000000pt" viewBox="0 0 900.000000 786.000000"
 preserveAspectRatio="xMidYMid meet">
<metadata>
Created by potrace 1.10, written by Peter Selinger 2001-2011
</metadata>
<g transform="translate(0.000000,786.000000) scale(0.100000,-0.100000)"
fill="#996515" stroke="none">
<path d="M545 7451 c-137 -5 -177 -10 -208 -25 -76 -38 -137 -139 -137 -228 0
-80 76 -189 155 -224 11 -4 247 -11 525 -14 493 -5 506 -6 550 -27 104 -50
151 -124 189 -298 12 -55 29 -127 37 -160 35 -134 42 -162 52 -210 18 -84 52
-227 66 -280 13 -47 21 -80 61 -260 8 -38 22 -92 30 -120 7 -27 21 -84 31
-125 9 -41 36 -158 61 -260 24 -102 51 -214 59 -250 8 -36 28 -119 44 -185 16
-66 44 -181 61 -255 17 -74 37 -155 45 -179 8 -25 14 -55 14 -67 0 -13 4 -33
9 -46 5 -13 17 -57 26 -98 9 -41 32 -138 50 -215 19 -77 41 -171 50 -210 28
-125 76 -319 85 -350 5 -16 12 -48 16 -70 4 -22 33 -145 65 -272 74 -296 114
-376 257 -521 132 -135 276 -210 452 -237 113 -18 4341 -21 4405 -4 97 27 166
125 166 234 0 41 -6 78 -18 102 -25 55 -94 117 -144 133 -36 10 -436 13 -2196
15 l-2152 3 -53 25 c-123 56 -182 138 -228 317 -17 69 -35 145 -40 170 -5 25
-17 74 -26 110 -9 36 -18 80 -21 98 l-5 32 2416 0 c2346 0 2418 1 2515 19 170
33 300 97 419 206 63 58 162 173 162 189 0 3 13 28 29 55 34 58 80 195 111
331 12 52 25 109 31 126 5 17 9 39 9 49 0 10 6 41 14 69 32 113 45 164 98 401
6 28 25 102 41 165 24 93 30 136 30 225 1 189 -50 312 -183 445 -84 84 -137
118 -252 163 l-53 21 -2988 3 -2988 3 -8 23 c-5 12 -16 56 -25 97 -10 41 -24
102 -32 135 -32 123 -44 174 -74 310 -17 77 -38 160 -46 184 -8 25 -14 55 -14
67 0 13 -4 33 -9 46 -5 13 -19 54 -31 92 -67 209 -260 407 -472 482 -109 39
-186 46 -528 49 -184 1 -411 0 -505 -4z"/>
<path d="M2691 2038 c-116 -16 -257 -73 -346 -138 -61 -45 -160 -143 -198
-195 -45 -63 -106 -197 -127 -280 -28 -109 -28 -287 1 -398 46 -181 162 -354
310 -463 238 -174 572 -205 838 -76 127 61 242 160 321 276 40 57 100 178 100
200 0 7 8 31 17 52 15 32 18 69 18 204 0 154 -2 170 -28 250 -131 395 -500
626 -906 568z m267 -517 c65 -34 118 -87 149 -149 24 -50 28 -69 28 -147 0
-79 -4 -96 -28 -143 -57 -109 -159 -173 -283 -180 -61 -4 -78 0 -136 26 -120
54 -189 152 -196 275 -8 135 61 257 180 317 60 30 68 31 153 28 68 -3 101 -10
133 -27z"/>
<path d="M7490 2036 c-84 -14 -220 -64 -275 -101 -20 -14 -40 -25 -46 -25 -9
0 -183 -170 -204 -200 -31 -43 -75 -122 -75 -133 0 -7 -7 -22 -15 -34 -24 -35
-55 -169 -62 -269 -13 -196 42 -380 162 -538 165 -218 381 -326 655 -326 144
0 230 20 361 83 113 54 208 131 282 230 52 70 117 180 117 199 0 6 6 24 14 41
25 56 46 177 46 264 0 158 -48 313 -140 451 -117 175 -284 294 -486 347 -82
21 -244 27 -334 11z m276 -516 c104 -52 154 -114 179 -224 18 -79 9 -149 -30
-226 -98 -192 -374 -227 -523 -66 -63 68 -85 126 -85 222 0 69 4 90 29 140 34
70 83 121 144 151 64 31 67 31 151 32 65 1 84 -3 135 -29z"/>
</g>
</svg>
