<svg  version="1.0" xmlns="http://www.w3.org/2000/svg"  width="681.000000pt" height="900.000000pt" viewBox="0 0 681.000000 900.000000"  preserveAspectRatio="xMidYMid meet">  <g transform="translate(0.000000,900.000000) scale(0.100000,-0.100000)" fill="#774d25" stroke="none"> <path d="M3590 8668 c-132 -37 -227 -93 -298 -176 -141 -165 -211 -383 -199 -624 5 -118 41 -439 53 -473 39 -117 99 -137 210 -69 75 47 94 55 104 49 32 -19 -7 -57 -150 -143 -119 -72 -133 -86 -127 -120 8 -40 61 -232 97 -347 17 -55 36 -117 41 -138 5 -21 13 -45 18 -55 5 -9 28 -66 50 -127 38 -106 99 -255 155 -380 15 -33 31 -69 36 -80 48 -115 329 -662 352 -685 85 -86 193 -53 378 114 36 32 82 70 103 84 34 23 39 24 54 10 10 -11 13 -23 8 -39 -4 -13 -72 -87 -150 -164 -122 -119 -149 -151 -181 -215 -33 -67 -37 -83 -38 -155 -1 -65 4 -93 26 -150 53 -138 124 -454 162 -730 35 -253 67 -735 81 -1250 7 -235 20 -311 59 -353 28 -32 97 -62 140 -62 70 0 137 -20 148 -46 8 -17 8 -27 -1 -38 -14 -17 -87 -36 -140 -36 -54 0 -118 -49 -149 -113 -27 -56 -42 -168 -42 -309 0 -169 -31 -482 -60 -618 -37 -166 -47 -351 -26 -454 20 -97 38 -131 79 -156 101 -62 249 11 475 233 193 189 304 326 458 562 36 55 74 112 85 127 10 15 19 29 19 32 0 3 15 31 34 63 47 81 158 298 184 359 12 28 35 80 51 115 45 100 115 282 159 419 60 188 73 240 122 490 33 174 69 525 81 795 12 268 6 996 -10 1170 -5 55 -14 156 -20 225 -11 135 -24 243 -47 415 -8 61 -17 128 -20 150 -3 22 -9 63 -14 90 -5 28 -16 93 -25 145 -22 133 -43 236 -60 300 -8 30 -24 96 -35 145 -12 50 -25 101 -30 115 -5 14 -18 59 -30 100 -31 107 -49 162 -60 185 -5 11 -30 74 -55 140 -25 66 -54 138 -65 160 -40 86 -141 291 -150 305 -5 8 -31 51 -57 95 -200 338 -501 648 -813 836 -200 119 -463 228 -663 274 -76 17 -252 19 -307 3z"/> <path d="M2620 8518 c-51 -15 -183 -70 -200 -84 -8 -6 -35 -22 -60 -34 -80 -40 -256 -171 -365 -272 -179 -165 -395 -421 -513 -608 -224 -355 -375 -663 -497 -1010 -20 -58 -40 -112 -44 -120 -4 -8 -24 -71 -45 -140 -20 -69 -40 -138 -46 -155 -7 -26 -52 -210 -91 -377 -29 -126 -74 -463 -99 -745 -27 -299 -22 -862 11 -1158 22 -204 71 -515 104 -655 9 -41 21 -91 25 -110 4 -19 15 -60 23 -90 8 -30 25 -91 37 -135 46 -174 169 -518 239 -670 16 -33 36 -80 47 -105 31 -75 153 -310 207 -400 172 -288 355 -516 591 -735 6 -6 54 -44 106 -86 297 -235 583 -361 980 -431 111 -19 385 -16 485 6 84 18 86 19 175 57 73 31 183 102 214 140 38 44 101 158 114 204 25 90 70 321 96 500 90 612 87 1051 -11 1520 -14 66 -28 131 -30 145 -16 80 -142 466 -179 547 -7 17 -14 34 -14 37 0 26 -148 319 -178 352 -102 111 -213 129 -355 58 -44 -23 -145 -94 -183 -129 -141 -131 -174 -149 -174 -97 0 30 60 95 132 145 20 13 48 33 64 46 16 12 83 61 150 110 142 105 178 143 169 180 -4 14 -35 73 -69 131 -35 58 -71 123 -81 145 -10 22 -28 56 -41 76 -12 19 -50 91 -84 160 -34 68 -72 144 -85 169 -13 25 -49 106 -80 180 -31 74 -60 144 -65 155 -26 55 -83 219 -120 345 -12 41 -25 86 -30 100 -31 87 -92 368 -105 480 -3 30 -13 78 -21 105 -13 47 -20 54 -124 130 -121 87 -148 116 -126 134 10 9 27 5 67 -14 133 -61 165 -15 148 209 -10 134 -12 414 -3 499 12 119 81 435 124 564 10 32 23 76 29 98 5 22 21 85 35 140 15 57 29 146 32 206 10 165 -17 242 -100 280 -45 20 -128 23 -186 7z"/> </g> </svg> 